# xmcd
#
# Track frame offsets: 
#        150
#        11964
#        33170
#
# Disc length: 709 seconds
#
# Revision: 0
# Processed by: cddbd v1.5.2PL0 Copyright (c) Steve Scherf et al.
# Submitted via: ExactAudioCopy v0.95b4
#
DISCID=1b02c303
DTITLE=Patatje Metal - Lik de Bållen
DYEAR=2006
DGENRE=Hard Rock
TTITLE0=Gloria
TTITLE1=De Kerstezel
TTITLE2=Oh Denneboom
EXTD=
EXTT0=
EXTT1=
EXTT2=
PLAYORDER=
